<svg xmlns="http://www.w3.org/2000/svg" width="1200" height="380" viewBox="0 0 1200 380" role="img" aria-labelledby="nft nftd">
  <title id="nft">Netflix analytics dashboard banner</title>
  <desc id="nftd">Colorful teal and blue dashboard preview with charts and content tiles</desc>
  <defs>
    <linearGradient id="nba" x1="0%" y1="0%" x2="100%" y2="100%">
      <stop offset="0%" stop-color="#0d9488"/>
      <stop offset="35%" stop-color="#0891b2"/>
      <stop offset="70%" stop-color="#2563eb"/>
      <stop offset="100%" stop-color="#1d4ed8"/>
    </linearGradient>
    <linearGradient id="nbg" x1="0%" y1="100%" x2="100%" y2="0%">
      <stop offset="0%" stop-color="#042f2e"/>
      <stop offset="50%" stop-color="#134e4a"/>
      <stop offset="100%" stop-color="#1e3a8a"/>
    </linearGradient>
    <linearGradient id="nglow" x1="0%" y1="0%" x2="100%" y2="0%">
      <stop offset="0%" stop-color="#5eead4"/>
      <stop offset="50%" stop-color="#38bdf8"/>
      <stop offset="100%" stop-color="#60a5fa"/>
    </linearGradient>
    <filter id="nbsoft" x="-10%" y="-10%" width="120%" height="120%">
      <feGaussianBlur stdDeviation="3" result="b"/>
      <feMerge><feMergeNode in="b"/><feMergeNode in="SourceGraphic"/></feMerge>
    </filter>
  </defs>
  <rect width="1200" height="380" fill="url(#nbg)"/>
  <circle cx="980" cy="-20" r="200" fill="#14b8a6" opacity="0.25"/>
  <circle cx="120" cy="400" r="240" fill="#3b82f6" opacity="0.2"/>
  <rect x="32" y="28" width="1136" height="56" rx="14" fill="rgba(15,118,110,0.45)" stroke="rgba(94,234,212,0.35)" stroke-width="1"/>
  <rect x="52" y="44" width="140" height="24" rx="8" fill="url(#nba)"/>
  <rect x="210" y="48" width="220" height="16" rx="5" fill="rgba(207,250,254,0.35)"/>
  <rect x="990" y="42" width="158" height="36" rx="10" fill="rgba(56,189,248,0.25)" stroke="rgba(125,211,252,0.5)" stroke-width="1"/>
  <g transform="translate(32 102)">
    <rect width="360" height="246" rx="16" fill="rgba(15,23,42,0.35)" stroke="rgba(45,212,191,0.4)" stroke-width="1"/>
    <rect x="16" y="16" width="100" height="10" rx="3" fill="#99f6e4"/>
    <path d="M24 180 L88 120 L152 148 L216 88 L280 132 L328 96" fill="none" stroke="url(#nglow)" stroke-width="4" stroke-linecap="round" stroke-linejoin="round" filter="url(#nbsoft)"/>
    <circle cx="88" cy="120" r="7" fill="#22d3ee"/>
    <circle cx="216" cy="88" r="7" fill="#5eead4"/>
    <circle cx="280" cy="132" r="7" fill="#67e8f9"/>
    <rect x="16" y="200" width="328" height="40" rx="8" fill="rgba(6,182,212,0.25)"/>
    <rect x="24" y="208" width="120" height="10" rx="3" fill="#a5f3fc" opacity="0.9"/>
    <rect x="24" y="224" width="200" height="8" rx="3" fill="#67e8f9" opacity="0.5"/>
  </g>
  <g transform="translate(412 102)">
    <rect width="756" height="246" rx="16" fill="rgba(15,23,42,0.35)" stroke="rgba(56,189,248,0.35)" stroke-width="1"/>
    <rect x="16" y="16" width="160" height="10" rx="3" fill="#a5f3fc"/>
    <g transform="translate(16 44)">
      <rect width="96" height="118" rx="10" fill="#0d9488"/>
      <rect x="108" width="96" height="118" rx="10" fill="#0891b2"/>
      <rect x="216" width="96" height="118" rx="10" fill="#0284c7"/>
      <rect x="324" width="96" height="118" rx="10" fill="#2563eb"/>
      <rect x="432" width="96" height="118" rx="10" fill="#06b6d4"/>
      <rect x="540" width="96" height="118" rx="10" fill="#14b8a6"/>
      <rect x="648" width="96" height="118" rx="10" fill="#38bdf8"/>
    </g>
    <rect x="16" y="182" width="724" height="48" rx="10" fill="rgba(59,130,246,0.2)"/>
    <rect x="28" y="196" width="48" height="20" rx="6" fill="#22d3ee"/>
    <rect x="88" y="196" width="48" height="20" rx="6" fill="#2dd4bf"/>
    <rect x="148" y="196" width="48" height="20" rx="6" fill="#3b82f6"/>
  </g>
</svg>
